<svg width="21" height="24" viewBox="0 0 21 24" fill="none" xmlns="http://www.w3.org/2000/svg">
<path fill-rule="evenodd" clip-rule="evenodd" d="M8.18458 20.7815C8.74575 21.4066 9.46616 21.75 10.2137 21.75H10.2147C10.9655 21.75 11.6892 21.4066 12.2514 20.7805C12.5526 20.4479 13.0661 20.4208 13.3987 20.7209C13.7323 21.021 13.7594 21.5355 13.4593 21.8681C12.584 22.8399 11.4324 23.375 10.2147 23.375H10.2126C8.99816 23.374 7.84875 22.8388 6.97666 21.867C6.67658 21.5345 6.70366 21.0199 7.03733 20.7209C7.371 20.4197 7.8845 20.4468 8.18458 20.7815ZM10.2676 0.083374C15.083 0.083374 18.3179 3.83387 18.3179 7.33629C18.3179 9.13787 18.7761 9.90162 19.2625 10.712C19.7435 11.5115 20.2884 12.4193 20.2884 14.1353C19.9104 18.5195 15.3333 18.877 10.2676 18.877C5.20195 18.877 0.623779 18.5195 0.250014 14.2046C0.246779 12.4193 0.791695 11.5115 1.2727 10.712L1.4425 10.4261C1.86059 9.70755 2.21736 8.92592 2.21736 7.33629C2.21736 3.83387 5.4522 0.083374 10.2676 0.083374ZM10.2676 1.70837C6.48136 1.70837 3.84236 4.67454 3.84236 7.33629C3.84236 9.58854 3.21728 10.6296 2.66478 11.5483C2.2217 12.286 1.87178 12.8689 1.87178 14.1353C2.0527 16.1785 3.40145 17.252 10.2676 17.252C17.0959 17.252 18.4869 16.1308 18.6667 14.0649C18.6634 12.8689 18.3135 12.286 17.8704 11.5483C17.3179 10.6296 16.6929 9.58854 16.6929 7.33629C16.6929 4.67454 14.0539 1.70837 10.2676 1.70837Z" fill="#3D3D3D"/>
</svg>
